<?xml version="1.0" encoding="utf-8"?>
<svg xmlns="http://www.w3.org/2000/svg" xmlns:xlink="http://www.w3.org/1999/xlink" xml:space="preserve" width="870" height="1015" viewBox="0 0 870 1015"><rect width="805.475" height="805.475" fill="#ffffff" x="36.25" y="36.25"/><g transform="scale(36.25)" fill="#000000"><path d="M22.7,0H1.3C0.6,0,0,0.6,0,1.3v25.3C0,27.4,0.6,28,1.3,28h21.3c0.7,0,1.3-0.6,1.3-1.3V1.3C24,0.6,23.4,0,22.7,0 z M23,22c0,0.6-0.5,1-1,1H2c-0.6,0-1-0.5-1-1V2c0-0.6,0.5-1,1-1h20c0.6,0,1,0.5,1,1V22z"/></g><g fill="#000000">
<g transform="translate(351,87) scale(4.12)"><rect width="6" height="6"/></g>
<g transform="translate(375,87) scale(4.12)"><rect width="6" height="6"/></g>
<g transform="translate(447,87) scale(4.12)"><rect width="6" height="6"/></g>
<g transform="translate(471,87) scale(4.12)"><rect width="6" height="6"/></g>
<g transform="translate(519,87) scale(4.12)"><rect width="6" height="6"/></g>
<g transform="translate(543,87) scale(4.12)"><rect width="6" height="6"/></g>
<g transform="translate(567,87) scale(4.12)"><rect width="6" height="6"/></g>
<g transform="translate(303,111) scale(4.12)"><rect width="6" height="6"/></g>
<g transform="translate(351,111) scale(4.12)"><rect width="6" height="6"/></g>
<g transform="translate(375,111) scale(4.12)"><rect width="6" height="6"/></g>
<g transform="translate(423,111) scale(4.12)"><rect width="6" height="6"/></g>
<g transform="translate(447,111) scale(4.12)"><rect width="6" height="6"/></g>
<g transform="translate(495,111) scale(4.12)"><rect width="6" height="6"/></g>
<g transform="translate(567,111) scale(4.12)"><rect width="6" height="6"/></g>
<g transform="translate(279,135) scale(4.12)"><rect width="6" height="6"/></g>
<g transform="translate(303,135) scale(4.12)"><rect width="6" height="6"/></g>
<g transform="translate(423,135) scale(4.12)"><rect width="6" height="6"/></g>
<g transform="translate(447,135) scale(4.12)"><rect width="6" height="6"/></g>
<g transform="translate(543,135) scale(4.12)"><rect width="6" height="6"/></g>
<g transform="translate(567,135) scale(4.12)"><rect width="6" height="6"/></g>
<g transform="translate(279,159) scale(4.12)"><rect width="6" height="6"/></g>
<g transform="translate(303,159) scale(4.12)"><rect width="6" height="6"/></g>
<g transform="translate(351,159) scale(4.12)"><rect width="6" height="6"/></g>
<g transform="translate(423,159) scale(4.12)"><rect width="6" height="6"/></g>
<g transform="translate(447,159) scale(4.12)"><rect width="6" height="6"/></g>
<g transform="translate(471,159) scale(4.12)"><rect width="6" height="6"/></g>
<g transform="translate(495,159) scale(4.12)"><rect width="6" height="6"/></g>
<g transform="translate(543,159) scale(4.12)"><rect width="6" height="6"/></g>
<g transform="translate(279,183) scale(4.12)"><rect width="6" height="6"/></g>
<g transform="translate(375,183) scale(4.12)"><rect width="6" height="6"/></g>
<g transform="translate(447,183) scale(4.12)"><rect width="6" height="6"/></g>
<g transform="translate(471,183) scale(4.12)"><rect width="6" height="6"/></g>
<g transform="translate(543,183) scale(4.12)"><rect width="6" height="6"/></g>
<g transform="translate(567,183) scale(4.12)"><rect width="6" height="6"/></g>
<g transform="translate(279,207) scale(4.12)"><rect width="6" height="6"/></g>
<g transform="translate(327,207) scale(4.12)"><rect width="6" height="6"/></g>
<g transform="translate(351,207) scale(4.12)"><rect width="6" height="6"/></g>
<g transform="translate(399,207) scale(4.12)"><rect width="6" height="6"/></g>
<g transform="translate(447,207) scale(4.12)"><rect width="6" height="6"/></g>
<g transform="translate(471,207) scale(4.12)"><rect width="6" height="6"/></g>
<g transform="translate(495,207) scale(4.12)"><rect width="6" height="6"/></g>
<g transform="translate(519,207) scale(4.12)"><rect width="6" height="6"/></g>
<g transform="translate(279,231) scale(4.12)"><rect width="6" height="6"/></g>
<g transform="translate(327,231) scale(4.12)"><rect width="6" height="6"/></g>
<g transform="translate(375,231) scale(4.12)"><rect width="6" height="6"/></g>
<g transform="translate(423,231) scale(4.12)"><rect width="6" height="6"/></g>
<g transform="translate(471,231) scale(4.12)"><rect width="6" height="6"/></g>
<g transform="translate(519,231) scale(4.12)"><rect width="6" height="6"/></g>
<g transform="translate(567,231) scale(4.12)"><rect width="6" height="6"/></g>
<g transform="translate(279,255) scale(4.12)"><rect width="6" height="6"/></g>
<g transform="translate(327,255) scale(4.12)"><rect width="6" height="6"/></g>
<g transform="translate(351,255) scale(4.12)"><rect width="6" height="6"/></g>
<g transform="translate(423,255) scale(4.12)"><rect width="6" height="6"/></g>
<g transform="translate(447,255) scale(4.12)"><rect width="6" height="6"/></g>
<g transform="translate(519,255) scale(4.12)"><rect width="6" height="6"/></g>
<g transform="translate(543,255) scale(4.12)"><rect width="6" height="6"/></g>
<g transform="translate(87,279) scale(4.12)"><rect width="6" height="6"/></g>
<g transform="translate(135,279) scale(4.12)"><rect width="6" height="6"/></g>
<g transform="translate(159,279) scale(4.12)"><rect width="6" height="6"/></g>
<g transform="translate(183,279) scale(4.12)"><rect width="6" height="6"/></g>
<g transform="translate(207,279) scale(4.12)"><rect width="6" height="6"/></g>
<g transform="translate(231,279) scale(4.12)"><rect width="6" height="6"/></g>
<g transform="translate(327,279) scale(4.12)"><rect width="6" height="6"/></g>
<g transform="translate(351,279) scale(4.12)"><rect width="6" height="6"/></g>
<g transform="translate(471,279) scale(4.12)"><rect width="6" height="6"/></g>
<g transform="translate(495,279) scale(4.12)"><rect width="6" height="6"/></g>
<g transform="translate(567,279) scale(4.12)"><rect width="6" height="6"/></g>
<g transform="translate(615,279) scale(4.12)"><rect width="6" height="6"/></g>
<g transform="translate(639,279) scale(4.12)"><rect width="6" height="6"/></g>
<g transform="translate(663,279) scale(4.12)"><rect width="6" height="6"/></g>
<g transform="translate(687,279) scale(4.12)"><rect width="6" height="6"/></g>
<g transform="translate(711,279) scale(4.12)"><rect width="6" height="6"/></g>
<g transform="translate(135,303) scale(4.12)"><rect width="6" height="6"/></g>
<g transform="translate(207,303) scale(4.12)"><rect width="6" height="6"/></g>
<g transform="translate(255,303) scale(4.12)"><rect width="6" height="6"/></g>
<g transform="translate(279,303) scale(4.12)"><rect width="6" height="6"/></g>
<g transform="translate(303,303) scale(4.12)"><rect width="6" height="6"/></g>
<g transform="translate(327,303) scale(4.12)"><rect width="6" height="6"/></g>
<g transform="translate(399,303) scale(4.12)"><rect width="6" height="6"/></g>
<g transform="translate(447,303) scale(4.12)"><rect width="6" height="6"/></g>
<g transform="translate(471,303) scale(4.12)"><rect width="6" height="6"/></g>
<g transform="translate(519,303) scale(4.12)"><rect width="6" height="6"/></g>
<g transform="translate(543,303) scale(4.12)"><rect width="6" height="6"/></g>
<g transform="translate(567,303) scale(4.12)"><rect width="6" height="6"/></g>
<g transform="translate(615,303) scale(4.12)"><rect width="6" height="6"/></g>
<g transform="translate(639,303) scale(4.12)"><rect width="6" height="6"/></g>
<g transform="translate(663,303) scale(4.12)"><rect width="6" height="6"/></g>
<g transform="translate(759,303) scale(4.12)"><rect width="6" height="6"/></g>
<g transform="translate(87,327) scale(4.12)"><rect width="6" height="6"/></g>
<g transform="translate(111,327) scale(4.12)"><rect width="6" height="6"/></g>
<g transform="translate(135,327) scale(4.12)"><rect width="6" height="6"/></g>
<g transform="translate(159,327) scale(4.12)"><rect width="6" height="6"/></g>
<g transform="translate(207,327) scale(4.12)"><rect width="6" height="6"/></g>
<g transform="translate(231,327) scale(4.12)"><rect width="6" height="6"/></g>
<g transform="translate(255,327) scale(4.12)"><rect width="6" height="6"/></g>
<g transform="translate(303,327) scale(4.12)"><rect width="6" height="6"/></g>
<g transform="translate(351,327) scale(4.12)"><rect width="6" height="6"/></g>
<g transform="translate(399,327) scale(4.12)"><rect width="6" height="6"/></g>
<g transform="translate(423,327) scale(4.12)"><rect width="6" height="6"/></g>
<g transform="translate(447,327) scale(4.12)"><rect width="6" height="6"/></g>
<g transform="translate(519,327) scale(4.12)"><rect width="6" height="6"/></g>
<g transform="translate(663,327) scale(4.12)"><rect width="6" height="6"/></g>
<g transform="translate(183,351) scale(4.12)"><rect width="6" height="6"/></g>
<g transform="translate(207,351) scale(4.12)"><rect width="6" height="6"/></g>
<g transform="translate(255,351) scale(4.12)"><rect width="6" height="6"/></g>
<g transform="translate(279,351) scale(4.12)"><rect width="6" height="6"/></g>
<g transform="translate(351,351) scale(4.12)"><rect width="6" height="6"/></g>
<g transform="translate(399,351) scale(4.12)"><rect width="6" height="6"/></g>
<g transform="translate(687,351) scale(4.12)"><rect width="6" height="6"/></g>
<g transform="translate(735,351) scale(4.12)"><rect width="6" height="6"/></g>
<g transform="translate(183,375) scale(4.12)"><rect width="6" height="6"/></g>
<g transform="translate(207,375) scale(4.12)"><rect width="6" height="6"/></g>
<g transform="translate(231,375) scale(4.12)"><rect width="6" height="6"/></g>
<g transform="translate(255,375) scale(4.12)"><rect width="6" height="6"/></g>
<g transform="translate(279,375) scale(4.12)"><rect width="6" height="6"/></g>
<g transform="translate(327,375) scale(4.12)"><rect width="6" height="6"/></g>
<g transform="translate(423,375) scale(4.12)"><rect width="6" height="6"/></g>
<g transform="translate(447,375) scale(4.12)"><rect width="6" height="6"/></g>
<g transform="translate(495,375) scale(4.12)"><rect width="6" height="6"/></g>
<g transform="translate(567,375) scale(4.12)"><rect width="6" height="6"/></g>
<g transform="translate(687,375) scale(4.12)"><rect width="6" height="6"/></g>
<g transform="translate(711,375) scale(4.12)"><rect width="6" height="6"/></g>
<g transform="translate(87,399) scale(4.12)"><rect width="6" height="6"/></g>
<g transform="translate(183,399) scale(4.12)"><rect width="6" height="6"/></g>
<g transform="translate(207,399) scale(4.12)"><rect width="6" height="6"/></g>
<g transform="translate(327,399) scale(4.12)"><rect width="6" height="6"/></g>
<g transform="translate(351,399) scale(4.12)"><rect width="6" height="6"/></g>
<g transform="translate(471,399) scale(4.12)"><rect width="6" height="6"/></g>
<g transform="translate(495,399) scale(4.12)"><rect width="6" height="6"/></g>
<g transform="translate(519,399) scale(4.12)"><rect width="6" height="6"/></g>
<g transform="translate(567,399) scale(4.12)"><rect width="6" height="6"/></g>
<g transform="translate(591,399) scale(4.12)"><rect width="6" height="6"/></g>
<g transform="translate(615,399) scale(4.12)"><rect width="6" height="6"/></g>
<g transform="translate(639,399) scale(4.12)"><rect width="6" height="6"/></g>
<g transform="translate(663,399) scale(4.12)"><rect width="6" height="6"/></g>
<g transform="translate(759,399) scale(4.12)"><rect width="6" height="6"/></g>
<g transform="translate(87,423) scale(4.12)"><rect width="6" height="6"/></g>
<g transform="translate(111,423) scale(4.12)"><rect width="6" height="6"/></g>
<g transform="translate(135,423) scale(4.12)"><rect width="6" height="6"/></g>
<g transform="translate(183,423) scale(4.12)"><rect width="6" height="6"/></g>
<g transform="translate(207,423) scale(4.12)"><rect width="6" height="6"/></g>
<g transform="translate(231,423) scale(4.12)"><rect width="6" height="6"/></g>
<g transform="translate(279,423) scale(4.12)"><rect width="6" height="6"/></g>
<g transform="translate(447,423) scale(4.12)"><rect width="6" height="6"/></g>
<g transform="translate(471,423) scale(4.12)"><rect width="6" height="6"/></g>
<g transform="translate(567,423) scale(4.12)"><rect width="6" height="6"/></g>
<g transform="translate(591,423) scale(4.12)"><rect width="6" height="6"/></g>
<g transform="translate(663,423) scale(4.12)"><rect width="6" height="6"/></g>
<g transform="translate(687,423) scale(4.12)"><rect width="6" height="6"/></g>
<g transform="translate(711,423) scale(4.12)"><rect width="6" height="6"/></g>
<g transform="translate(111,447) scale(4.12)"><rect width="6" height="6"/></g>
<g transform="translate(183,447) scale(4.12)"><rect width="6" height="6"/></g>
<g transform="translate(207,447) scale(4.12)"><rect width="6" height="6"/></g>
<g transform="translate(255,447) scale(4.12)"><rect width="6" height="6"/></g>
<g transform="translate(279,447) scale(4.12)"><rect width="6" height="6"/></g>
<g transform="translate(303,447) scale(4.12)"><rect width="6" height="6"/></g>
<g transform="translate(423,447) scale(4.12)"><rect width="6" height="6"/></g>
<g transform="translate(447,447) scale(4.12)"><rect width="6" height="6"/></g>
<g transform="translate(471,447) scale(4.12)"><rect width="6" height="6"/></g>
<g transform="translate(543,447) scale(4.12)"><rect width="6" height="6"/></g>
<g transform="translate(567,447) scale(4.12)"><rect width="6" height="6"/></g>
<g transform="translate(591,447) scale(4.12)"><rect width="6" height="6"/></g>
<g transform="translate(615,447) scale(4.12)"><rect width="6" height="6"/></g>
<g transform="translate(639,447) scale(4.12)"><rect width="6" height="6"/></g>
<g transform="translate(663,447) scale(4.12)"><rect width="6" height="6"/></g>
<g transform="translate(735,447) scale(4.12)"><rect width="6" height="6"/></g>
<g transform="translate(111,471) scale(4.12)"><rect width="6" height="6"/></g>
<g transform="translate(135,471) scale(4.12)"><rect width="6" height="6"/></g>
<g transform="translate(159,471) scale(4.12)"><rect width="6" height="6"/></g>
<g transform="translate(231,471) scale(4.12)"><rect width="6" height="6"/></g>
<g transform="translate(255,471) scale(4.12)"><rect width="6" height="6"/></g>
<g transform="translate(303,471) scale(4.12)"><rect width="6" height="6"/></g>
<g transform="translate(375,471) scale(4.12)"><rect width="6" height="6"/></g>
<g transform="translate(447,471) scale(4.12)"><rect width="6" height="6"/></g>
<g transform="translate(471,471) scale(4.12)"><rect width="6" height="6"/></g>
<g transform="translate(495,471) scale(4.12)"><rect width="6" height="6"/></g>
<g transform="translate(543,471) scale(4.12)"><rect width="6" height="6"/></g>
<g transform="translate(591,471) scale(4.12)"><rect width="6" height="6"/></g>
<g transform="translate(639,471) scale(4.12)"><rect width="6" height="6"/></g>
<g transform="translate(687,471) scale(4.12)"><rect width="6" height="6"/></g>
<g transform="translate(711,471) scale(4.12)"><rect width="6" height="6"/></g>
<g transform="translate(87,495) scale(4.12)"><rect width="6" height="6"/></g>
<g transform="translate(255,495) scale(4.12)"><rect width="6" height="6"/></g>
<g transform="translate(279,495) scale(4.12)"><rect width="6" height="6"/></g>
<g transform="translate(375,495) scale(4.12)"><rect width="6" height="6"/></g>
<g transform="translate(399,495) scale(4.12)"><rect width="6" height="6"/></g>
<g transform="translate(423,495) scale(4.12)"><rect width="6" height="6"/></g>
<g transform="translate(471,495) scale(4.12)"><rect width="6" height="6"/></g>
<g transform="translate(495,495) scale(4.12)"><rect width="6" height="6"/></g>
<g transform="translate(519,495) scale(4.12)"><rect width="6" height="6"/></g>
<g transform="translate(543,495) scale(4.12)"><rect width="6" height="6"/></g>
<g transform="translate(591,495) scale(4.12)"><rect width="6" height="6"/></g>
<g transform="translate(615,495) scale(4.12)"><rect width="6" height="6"/></g>
<g transform="translate(639,495) scale(4.12)"><rect width="6" height="6"/></g>
<g transform="translate(663,495) scale(4.12)"><rect width="6" height="6"/></g>
<g transform="translate(711,495) scale(4.12)"><rect width="6" height="6"/></g>
<g transform="translate(759,495) scale(4.12)"><rect width="6" height="6"/></g>
<g transform="translate(87,519) scale(4.12)"><rect width="6" height="6"/></g>
<g transform="translate(135,519) scale(4.12)"><rect width="6" height="6"/></g>
<g transform="translate(231,519) scale(4.12)"><rect width="6" height="6"/></g>
<g transform="translate(279,519) scale(4.12)"><rect width="6" height="6"/></g>
<g transform="translate(303,519) scale(4.12)"><rect width="6" height="6"/></g>
<g transform="translate(327,519) scale(4.12)"><rect width="6" height="6"/></g>
<g transform="translate(351,519) scale(4.12)"><rect width="6" height="6"/></g>
<g transform="translate(399,519) scale(4.12)"><rect width="6" height="6"/></g>
<g transform="translate(423,519) scale(4.12)"><rect width="6" height="6"/></g>
<g transform="translate(447,519) scale(4.12)"><rect width="6" height="6"/></g>
<g transform="translate(567,519) scale(4.12)"><rect width="6" height="6"/></g>
<g transform="translate(615,519) scale(4.12)"><rect width="6" height="6"/></g>
<g transform="translate(639,519) scale(4.12)"><rect width="6" height="6"/></g>
<g transform="translate(663,519) scale(4.12)"><rect width="6" height="6"/></g>
<g transform="translate(711,519) scale(4.12)"><rect width="6" height="6"/></g>
<g transform="translate(87,543) scale(4.12)"><rect width="6" height="6"/></g>
<g transform="translate(135,543) scale(4.12)"><rect width="6" height="6"/></g>
<g transform="translate(207,543) scale(4.12)"><rect width="6" height="6"/></g>
<g transform="translate(255,543) scale(4.12)"><rect width="6" height="6"/></g>
<g transform="translate(279,543) scale(4.12)"><rect width="6" height="6"/></g>
<g transform="translate(303,543) scale(4.12)"><rect width="6" height="6"/></g>
<g transform="translate(351,543) scale(4.12)"><rect width="6" height="6"/></g>
<g transform="translate(375,543) scale(4.12)"><rect width="6" height="6"/></g>
<g transform="translate(399,543) scale(4.12)"><rect width="6" height="6"/></g>
<g transform="translate(447,543) scale(4.12)"><rect width="6" height="6"/></g>
<g transform="translate(471,543) scale(4.12)"><rect width="6" height="6"/></g>
<g transform="translate(567,543) scale(4.12)"><rect width="6" height="6"/></g>
<g transform="translate(591,543) scale(4.12)"><rect width="6" height="6"/></g>
<g transform="translate(615,543) scale(4.12)"><rect width="6" height="6"/></g>
<g transform="translate(735,543) scale(4.12)"><rect width="6" height="6"/></g>
<g transform="translate(87,567) scale(4.12)"><rect width="6" height="6"/></g>
<g transform="translate(231,567) scale(4.12)"><rect width="6" height="6"/></g>
<g transform="translate(255,567) scale(4.12)"><rect width="6" height="6"/></g>
<g transform="translate(327,567) scale(4.12)"><rect width="6" height="6"/></g>
<g transform="translate(423,567) scale(4.12)"><rect width="6" height="6"/></g>
<g transform="translate(495,567) scale(4.12)"><rect width="6" height="6"/></g>
<g transform="translate(543,567) scale(4.12)"><rect width="6" height="6"/></g>
<g transform="translate(567,567) scale(4.12)"><rect width="6" height="6"/></g>
<g transform="translate(591,567) scale(4.12)"><rect width="6" height="6"/></g>
<g transform="translate(615,567) scale(4.12)"><rect width="6" height="6"/></g>
<g transform="translate(639,567) scale(4.12)"><rect width="6" height="6"/></g>
<g transform="translate(663,567) scale(4.12)"><rect width="6" height="6"/></g>
<g transform="translate(711,567) scale(4.12)"><rect width="6" height="6"/></g>
<g transform="translate(735,567) scale(4.12)"><rect width="6" height="6"/></g>
<g transform="translate(759,567) scale(4.12)"><rect width="6" height="6"/></g>
<g transform="translate(279,591) scale(4.12)"><rect width="6" height="6"/></g>
<g transform="translate(303,591) scale(4.12)"><rect width="6" height="6"/></g>
<g transform="translate(351,591) scale(4.12)"><rect width="6" height="6"/></g>
<g transform="translate(471,591) scale(4.12)"><rect width="6" height="6"/></g>
<g transform="translate(495,591) scale(4.12)"><rect width="6" height="6"/></g>
<g transform="translate(519,591) scale(4.12)"><rect width="6" height="6"/></g>
<g transform="translate(567,591) scale(4.12)"><rect width="6" height="6"/></g>
<g transform="translate(663,591) scale(4.12)"><rect width="6" height="6"/></g>
<g transform="translate(687,591) scale(4.12)"><rect width="6" height="6"/></g>
<g transform="translate(711,591) scale(4.12)"><rect width="6" height="6"/></g>
<g transform="translate(735,591) scale(4.12)"><rect width="6" height="6"/></g>
<g transform="translate(759,591) scale(4.12)"><rect width="6" height="6"/></g>
<g transform="translate(327,615) scale(4.12)"><rect width="6" height="6"/></g>
<g transform="translate(351,615) scale(4.12)"><rect width="6" height="6"/></g>
<g transform="translate(375,615) scale(4.12)"><rect width="6" height="6"/></g>
<g transform="translate(447,615) scale(4.12)"><rect width="6" height="6"/></g>
<g transform="translate(471,615) scale(4.12)"><rect width="6" height="6"/></g>
<g transform="translate(519,615) scale(4.12)"><rect width="6" height="6"/></g>
<g transform="translate(543,615) scale(4.12)"><rect width="6" height="6"/></g>
<g transform="translate(567,615) scale(4.12)"><rect width="6" height="6"/></g>
<g transform="translate(615,615) scale(4.12)"><rect width="6" height="6"/></g>
<g transform="translate(663,615) scale(4.12)"><rect width="6" height="6"/></g>
<g transform="translate(687,615) scale(4.12)"><rect width="6" height="6"/></g>
<g transform="translate(711,615) scale(4.12)"><rect width="6" height="6"/></g>
<g transform="translate(279,639) scale(4.12)"><rect width="6" height="6"/></g>
<g transform="translate(423,639) scale(4.12)"><rect width="6" height="6"/></g>
<g transform="translate(543,639) scale(4.12)"><rect width="6" height="6"/></g>
<g transform="translate(567,639) scale(4.12)"><rect width="6" height="6"/></g>
<g transform="translate(663,639) scale(4.12)"><rect width="6" height="6"/></g>
<g transform="translate(735,639) scale(4.12)"><rect width="6" height="6"/></g>
<g transform="translate(759,639) scale(4.12)"><rect width="6" height="6"/></g>
<g transform="translate(279,663) scale(4.12)"><rect width="6" height="6"/></g>
<g transform="translate(303,663) scale(4.12)"><rect width="6" height="6"/></g>
<g transform="translate(327,663) scale(4.12)"><rect width="6" height="6"/></g>
<g transform="translate(351,663) scale(4.12)"><rect width="6" height="6"/></g>
<g transform="translate(447,663) scale(4.12)"><rect width="6" height="6"/></g>
<g transform="translate(495,663) scale(4.12)"><rect width="6" height="6"/></g>
<g transform="translate(567,663) scale(4.12)"><rect width="6" height="6"/></g>
<g transform="translate(591,663) scale(4.12)"><rect width="6" height="6"/></g>
<g transform="translate(615,663) scale(4.12)"><rect width="6" height="6"/></g>
<g transform="translate(639,663) scale(4.12)"><rect width="6" height="6"/></g>
<g transform="translate(663,663) scale(4.12)"><rect width="6" height="6"/></g>
<g transform="translate(711,663) scale(4.12)"><rect width="6" height="6"/></g>
<g transform="translate(279,687) scale(4.12)"><rect width="6" height="6"/></g>
<g transform="translate(327,687) scale(4.12)"><rect width="6" height="6"/></g>
<g transform="translate(351,687) scale(4.12)"><rect width="6" height="6"/></g>
<g transform="translate(375,687) scale(4.12)"><rect width="6" height="6"/></g>
<g transform="translate(423,687) scale(4.12)"><rect width="6" height="6"/></g>
<g transform="translate(447,687) scale(4.12)"><rect width="6" height="6"/></g>
<g transform="translate(471,687) scale(4.12)"><rect width="6" height="6"/></g>
<g transform="translate(495,687) scale(4.12)"><rect width="6" height="6"/></g>
<g transform="translate(519,687) scale(4.12)"><rect width="6" height="6"/></g>
<g transform="translate(543,687) scale(4.12)"><rect width="6" height="6"/></g>
<g transform="translate(567,687) scale(4.12)"><rect width="6" height="6"/></g>
<g transform="translate(687,687) scale(4.12)"><rect width="6" height="6"/></g>
<g transform="translate(711,687) scale(4.12)"><rect width="6" height="6"/></g>
<g transform="translate(735,687) scale(4.12)"><rect width="6" height="6"/></g>
<g transform="translate(759,687) scale(4.12)"><rect width="6" height="6"/></g>
<g transform="translate(279,711) scale(4.12)"><rect width="6" height="6"/></g>
<g transform="translate(375,711) scale(4.12)"><rect width="6" height="6"/></g>
<g transform="translate(423,711) scale(4.12)"><rect width="6" height="6"/></g>
<g transform="translate(447,711) scale(4.12)"><rect width="6" height="6"/></g>
<g transform="translate(471,711) scale(4.12)"><rect width="6" height="6"/></g>
<g transform="translate(495,711) scale(4.12)"><rect width="6" height="6"/></g>
<g transform="translate(543,711) scale(4.12)"><rect width="6" height="6"/></g>
<g transform="translate(567,711) scale(4.12)"><rect width="6" height="6"/></g>
<g transform="translate(591,711) scale(4.12)"><rect width="6" height="6"/></g>
<g transform="translate(615,711) scale(4.12)"><rect width="6" height="6"/></g>
<g transform="translate(639,711) scale(4.12)"><rect width="6" height="6"/></g>
<g transform="translate(663,711) scale(4.12)"><rect width="6" height="6"/></g>
<g transform="translate(687,711) scale(4.12)"><rect width="6" height="6"/></g>
<g transform="translate(711,711) scale(4.12)"><rect width="6" height="6"/></g>
<g transform="translate(735,711) scale(4.12)"><rect width="6" height="6"/></g>
<g transform="translate(303,735) scale(4.12)"><rect width="6" height="6"/></g>
<g transform="translate(423,735) scale(4.12)"><rect width="6" height="6"/></g>
<g transform="translate(471,735) scale(4.12)"><rect width="6" height="6"/></g>
<g transform="translate(519,735) scale(4.12)"><rect width="6" height="6"/></g>
<g transform="translate(567,735) scale(4.12)"><rect width="6" height="6"/></g>
<g transform="translate(591,735) scale(4.12)"><rect width="6" height="6"/></g>
<g transform="translate(639,735) scale(4.12)"><rect width="6" height="6"/></g>
<g transform="translate(687,735) scale(4.12)"><rect width="6" height="6"/></g>
<g transform="translate(735,735) scale(4.12)"><rect width="6" height="6"/></g>
<g transform="translate(279,759) scale(4.12)"><rect width="6" height="6"/></g>
<g transform="translate(303,759) scale(4.12)"><rect width="6" height="6"/></g>
<g transform="translate(351,759) scale(4.12)"><rect width="6" height="6"/></g>
<g transform="translate(375,759) scale(4.12)"><rect width="6" height="6"/></g>
<g transform="translate(423,759) scale(4.12)"><rect width="6" height="6"/></g>
<g transform="translate(447,759) scale(4.12)"><rect width="6" height="6"/></g>
<g transform="translate(495,759) scale(4.12)"><rect width="6" height="6"/></g>
<g transform="translate(543,759) scale(4.12)"><rect width="6" height="6"/></g>
<g transform="translate(615,759) scale(4.12)"><rect width="6" height="6"/></g>
<g transform="translate(639,759) scale(4.12)"><rect width="6" height="6"/></g>
<g transform="translate(663,759) scale(4.12)"><rect width="6" height="6"/></g>
<g transform="translate(711,759) scale(4.12)"><rect width="6" height="6"/></g>
<g transform="translate(87,87)"><g transform="scale(12)"><path d="M0,0v14h14V0H0z M12,12H2V2h10V12z"/></g></g>
<g transform="translate(615,87)"><g transform="scale(12)"><path d="M0,0v14h14V0H0z M12,12H2V2h10V12z"/></g></g>
<g transform="translate(87,615)"><g transform="scale(12)"><path d="M0,0v14h14V0H0z M12,12H2V2h10V12z"/></g></g>
<g transform="translate(135,135)"><g transform="scale(12)"><rect width="6" height="6"/></g></g>
<g transform="translate(663,135)"><g transform="scale(12)"><rect width="6" height="6"/></g></g>
<g transform="translate(135,663)"><g transform="scale(12)"><rect width="6" height="6"/></g></g>
</g><g fill="#000000" transform="scale(36.25)"><path d="M22.7,0H1.3C0.6,0,0,0.6,0,1.3v25.3C0,27.4,0.6,28,1.3,28h21.3c0.7,0,1.3-0.6,1.3-1.3V1.3C24,0.6,23.4,0,22.7,0 z M23,22c0,0.6-0.5,1-1,1H2c-0.6,0-1-0.5-1-1V2c0-0.6,0.5-1,1-1h20c0.6,0,1,0.5,1,1V22z"/></g><g transform="translate(87,877.98842896608) scale(0.64553598116027)"><path fill="#FFFFFF" d="M7.71484375,119.921875l0-71.58203125l27.001953125,0q7.12890625,0,10.888671875,0.68359375q5.2734375,0.87890625,8.837890625,3.3447265625t5.7373046875,6.9091796875t2.1728515625,9.765625q0,9.130859375-5.810546875,15.4541015625t-20.99609375,6.3232421875l-18.359375,0l0,29.1015625l-9.47265625,0z M17.1875,82.373046875l18.505859375,0q9.1796875,0,13.037109375-3.41796875t3.857421875-9.619140625q0-4.4921875-2.2705078125-7.6904296875t-5.9814453125-4.2236328125q-2.392578125-0.634765625-8.837890625-0.634765625l-18.310546875,0l0,25.5859375z M73.193359375,119.921875l0-51.85546875l7.91015625,0l0,7.861328125q3.02734375-5.517578125,5.5908203125-7.275390625t5.6396484375-1.7578125q4.443359375,0,9.033203125,2.83203125l-3.02734375,8.154296875q-3.22265625-1.904296875-6.4453125-1.904296875q-2.880859375,0-5.17578125,1.7333984375t-3.271484375,4.8095703125q-1.46484375,4.6875-1.46484375,10.25390625l0,27.1484375l-8.7890625,0z M103.3203125,93.994140625q0-14.404296875,8.0078125-21.337890625q6.689453125-5.76171875,16.30859375-5.76171875q10.693359375,0,17.48046875,7.0068359375t6.787109375,19.3603515625q0,10.009765625-3.0029296875,15.7470703125t-8.740234375,8.9111328125t-12.5244140625,3.173828125q-10.888671875,0-17.6025390625-6.982421875t-6.7138671875-20.1171875z M112.353515625,93.994140625q0,9.9609375,4.345703125,14.9169921875t10.9375,4.9560546875q6.54296875,0,10.888671875-4.98046875t4.345703125-15.185546875q0-9.619140625-4.3701171875-14.5751953125t-10.8642578125-4.9560546875q-6.591796875,0-10.9375,4.931640625t-4.345703125,14.892578125z M160.595703125,124.21875l8.544921875,1.26953125q0.537109375,3.955078125,2.978515625,5.76171875q3.271484375,2.44140625,8.935546875,2.44140625q6.103515625,0,9.423828125-2.44140625t4.4921875-6.8359375q0.68359375-2.685546875,0.634765625-11.279296875q-5.76171875,6.787109375-14.35546875,6.787109375q-10.693359375,0-16.552734375-7.71484375t-5.859375-18.505859375q0-7.421875,2.685546875-13.6962890625t7.7880859375-9.6923828125t11.9873046875-3.41796875q9.1796875,0,15.13671875,7.421875l0-6.25l8.10546875,0l0,44.82421875q0,12.109375-2.4658203125,17.1630859375t-7.8125,7.9833984375t-13.1591796875,2.9296875q-9.27734375,0-14.990234375-4.1748046875t-5.517578125-12.5732421875z M167.87109375,93.06640625q0,10.205078125,4.052734375,14.892578125t10.15625,4.6875q6.0546875,0,10.15625-4.6630859375t4.1015625-14.6240234375q0-9.521484375-4.2236328125-14.35546875t-10.1806640625-4.833984375q-5.859375,0-9.9609375,4.7607421875t-4.1015625,14.1357421875z M217.724609375,119.921875l0-51.85546875l7.91015625,0l0,7.861328125q3.02734375-5.517578125,5.5908203125-7.275390625t5.6396484375-1.7578125q4.443359375,0,9.033203125,2.83203125l-3.02734375,8.154296875q-3.22265625-1.904296875-6.4453125-1.904296875q-2.880859375,0-5.17578125,1.7333984375t-3.271484375,4.8095703125q-1.46484375,4.6875-1.46484375,10.25390625l0,27.1484375l-8.7890625,0z M284.9609375,113.525390625q-4.8828125,4.150390625-9.3994140625,5.859375t-9.6923828125,1.708984375q-8.544921875,0-13.134765625-4.1748046875t-4.58984375-10.6689453125q0-3.80859375,1.7333984375-6.9580078125t4.541015625-5.0537109375t6.3232421875-2.880859375q2.587890625-0.68359375,7.8125-1.318359375q10.64453125-1.26953125,15.673828125-3.02734375q0.048828125-1.806640625,0.048828125-2.294921875q0-5.37109375-2.490234375-7.568359375q-3.369140625-2.978515625-10.009765625-2.978515625q-6.201171875,0-9.1552734375,2.1728515625t-4.3701171875,7.6904296875l-8.59375-1.171875q1.171875-5.517578125,3.857421875-8.9111328125t7.763671875-5.224609375t11.767578125-1.8310546875q6.640625,0,10.791015625,1.5625t6.103515625,3.9306640625t2.734375,5.9814453125q0.439453125,2.24609375,0.439453125,8.10546875l0,11.71875q0,12.255859375,0.5615234375,15.5029296875t2.2216796875,6.2255859375l-9.1796875,0q-1.3671875-2.734375-1.7578125-6.396484375z M284.228515625,93.896484375q-4.78515625,1.953125-14.35546875,3.3203125q-5.419921875,0.78125-7.666015625,1.7578125t-3.466796875,2.8564453125t-1.220703125,4.1748046875q0,3.515625,2.6611328125,5.859375t7.7880859375,2.34375q5.078125,0,9.033203125-2.2216796875t5.810546875-6.0791015625q1.416015625-2.978515625,1.416015625-8.7890625l0-3.22265625z M306.73828125,119.921875l0-51.85546875l7.861328125,0l0,7.275390625q2.44140625-3.80859375,6.494140625-6.1279296875t9.228515625-2.3193359375q5.76171875,0,9.4482421875,2.392578125t5.2001953125,6.689453125q6.15234375-9.08203125,16.015625-9.08203125q7.71484375,0,11.865234375,4.2724609375t4.150390625,13.1591796875l0,35.595703125l-8.740234375,0l0-32.666015625q0-5.2734375-0.8544921875-7.5927734375t-3.1005859375-3.7353515625t-5.2734375-1.416015625q-5.46875,0-9.08203125,3.6376953125t-3.61328125,11.6455078125l0,30.126953125l-8.7890625,0l0-33.69140625q0-5.859375-2.1484375-8.7890625t-7.03125-2.9296875q-3.7109375,0-6.8603515625,1.953125t-4.5654296875,5.712890625t-1.416015625,10.83984375l0,26.904296875l-8.7890625,0z M390.0390625,119.921875l0-51.85546875l7.861328125,0l0,7.275390625q2.44140625-3.80859375,6.494140625-6.1279296875t9.228515625-2.3193359375q5.76171875,0,9.4482421875,2.392578125t5.2001953125,6.689453125q6.15234375-9.08203125,16.015625-9.08203125q7.71484375,0,11.865234375,4.2724609375t4.150390625,13.1591796875l0,35.595703125l-8.740234375,0l0-32.666015625q0-5.2734375-0.8544921875-7.5927734375t-3.1005859375-3.7353515625t-5.2734375-1.416015625q-5.46875,0-9.08203125,3.6376953125t-3.61328125,11.6455078125l0,30.126953125l-8.7890625,0l0-33.69140625q0-5.859375-2.1484375-8.7890625t-7.03125-2.9296875q-3.7109375,0-6.8603515625,1.953125t-4.5654296875,5.712890625t-1.416015625,10.83984375l0,26.904296875l-8.7890625,0z M473.388671875,58.447265625l0-10.107421875l8.7890625,0l0,10.107421875l-8.7890625,0z M473.388671875,119.921875l0-51.85546875l8.7890625,0l0,51.85546875l-8.7890625,0z M495.556640625,119.921875l0-51.85546875l7.91015625,0l0,7.373046875q5.712890625-8.544921875,16.50390625-8.544921875q4.6875,0,8.6181640625,1.6845703125t5.8837890625,4.4189453125t2.734375,6.494140625q0.48828125,2.44140625,0.48828125,8.544921875l0,31.884765625l-8.7890625,0l0-31.54296875q0-5.37109375-1.025390625-8.0322265625t-3.6376953125-4.248046875t-6.1279296875-1.5869140625q-5.615234375,0-9.6923828125,3.564453125t-4.0771484375,13.525390625l0,28.3203125l-8.7890625,0z M549.560546875,124.21875l8.544921875,1.26953125q0.537109375,3.955078125,2.978515625,5.76171875q3.271484375,2.44140625,8.935546875,2.44140625q6.103515625,0,9.423828125-2.44140625t4.4921875-6.8359375q0.68359375-2.685546875,0.634765625-11.279296875q-5.76171875,6.787109375-14.35546875,6.787109375q-10.693359375,0-16.552734375-7.71484375t-5.859375-18.505859375q0-7.421875,2.685546875-13.6962890625t7.7880859375-9.6923828125t11.9873046875-3.41796875q9.1796875,0,15.13671875,7.421875l0-6.25l8.10546875,0l0,44.82421875q0,12.109375-2.4658203125,17.1630859375t-7.8125,7.9833984375t-13.1591796875,2.9296875q-9.27734375,0-14.990234375-4.1748046875t-5.517578125-12.5732421875z M556.8359375,93.06640625q0,10.205078125,4.052734375,14.892578125t10.15625,4.6875q6.0546875,0,10.15625-4.6630859375t4.1015625-14.6240234375q0-9.521484375-4.2236328125-14.35546875t-10.1806640625-4.833984375q-5.859375,0-9.9609375,4.7607421875t-4.1015625,14.1357421875z M658.984375,94.82421875l9.47265625,2.392578125q-2.978515625,11.669921875-10.7177734375,17.7978515625t-18.9208984375,6.1279296875q-11.572265625,0-18.8232421875-4.7119140625t-11.03515625-13.6474609375t-3.7841796875-19.189453125q0-11.181640625,4.2724609375-19.5068359375t12.158203125-12.646484375t17.3583984375-4.3212890625q10.7421875,0,18.06640625,5.46875t10.205078125,15.380859375l-9.326171875,2.197265625q-2.490234375-7.8125-7.2265625-11.376953125t-11.9140625-3.564453125q-8.251953125,0-13.7939453125,3.955078125t-7.7880859375,10.6201171875t-2.24609375,13.7451171875q0,9.130859375,2.6611328125,15.9423828125t8.2763671875,10.1806640625t12.158203125,3.369140625q7.958984375,0,13.4765625-4.58984375t7.470703125-13.623046875z M678.80859375,119.921875l0-71.58203125l8.7890625,0l0,71.58203125l-8.7890625,0z M735.205078125,119.921875l0-7.6171875q-6.0546875,8.7890625-16.455078125,8.7890625q-4.58984375,0-8.5693359375-1.7578125t-5.908203125-4.4189453125t-2.7099609375-6.5185546875q-0.537109375-2.587890625-0.537109375-8.203125l0-32.12890625l8.7890625,0l0,28.759765625q0,6.884765625,0.537109375,9.27734375q0.830078125,3.466796875,3.515625,5.4443359375t6.640625,1.9775390625t7.421875-2.0263671875t4.9072265625-5.517578125t1.4404296875-10.1318359375l0-27.783203125l8.7890625,0l0,51.85546875l-7.861328125,0z M764.94140625,119.921875l-8.154296875,0l0-71.58203125l8.7890625,0l0,25.537109375q5.56640625-6.982421875,14.208984375-6.982421875q4.78515625,0,9.0576171875,1.9287109375t7.03125,5.419921875t4.3212890625,8.4228515625t1.5625,10.546875q0,13.330078125-6.591796875,20.60546875t-15.8203125,7.275390625q-9.1796875,0-14.404296875-7.666015625l0,6.494140625z M764.84375,93.603515625q0,9.326171875,2.5390625,13.4765625q4.150390625,6.787109375,11.23046875,6.787109375q5.76171875,0,9.9609375-5.0048828125t4.19921875-14.9169921875q0-10.15625-4.0283203125-14.990234375t-9.7412109375-4.833984375q-5.76171875,0-9.9609375,5.0048828125t-4.19921875,14.4775390625z M833.740234375,119.921875l0-30.322265625l-27.587890625-41.259765625l11.5234375,0l14.111328125,21.58203125q3.90625,6.0546875,7.275390625,12.109375q3.22265625-5.615234375,7.8125-12.646484375l13.8671875-21.044921875l11.03515625,0l-28.564453125,41.259765625l0,30.322265625l-9.47265625,0z M880.2734375,119.921875l0-71.58203125l27.001953125,0q7.12890625,0,10.888671875,0.68359375q5.2734375,0.87890625,8.837890625,3.3447265625t5.7373046875,6.9091796875t2.1728515625,9.765625q0,9.130859375-5.810546875,15.4541015625t-20.99609375,6.3232421875l-18.359375,0l0,29.1015625l-9.47265625,0z M889.74609375,82.373046875l18.505859375,0q9.1796875,0,13.037109375-3.41796875t3.857421875-9.619140625q0-4.4921875-2.2705078125-7.6904296875t-5.9814453125-4.2236328125q-2.392578125-0.634765625-8.837890625-0.634765625l-18.310546875,0l0,25.5859375z M947.16796875,119.921875l0-71.58203125l51.7578125,0l0,8.447265625l-42.28515625,0l0,21.923828125l39.599609375,0l0,8.3984375l-39.599609375,0l0,24.365234375l43.9453125,0l0,8.447265625l-53.41796875,0z M1064.74609375,94.82421875l9.47265625,2.392578125q-2.978515625,11.669921875-10.7177734375,17.7978515625t-18.9208984375,6.1279296875q-11.572265625,0-18.8232421875-4.7119140625t-11.03515625-13.6474609375t-3.7841796875-19.189453125q0-11.181640625,4.2724609375-19.5068359375t12.158203125-12.646484375t17.3583984375-4.3212890625q10.7421875,0,18.06640625,5.46875t10.205078125,15.380859375l-9.326171875,2.197265625q-2.490234375-7.8125-7.2265625-11.376953125t-11.9140625-3.564453125q-8.251953125,0-13.7939453125,3.955078125t-7.7880859375,10.6201171875t-2.24609375,13.7451171875q0,9.130859375,2.6611328125,15.9423828125t8.2763671875,10.1806640625t12.158203125,3.369140625q7.958984375,0,13.4765625-4.58984375t7.470703125-13.623046875z"/></g></svg>
